<?xml version="1.0" encoding="UTF-8"?><svg id="Layer_1" xmlns="http://www.w3.org/2000/svg" width="52" height="52" viewBox="0 0 52 52"><path d="M41.79,23.36h-.29v-5.86c0-8.55-6.95-15.5-15.5-15.5s-15.5,6.95-15.5,15.5v5.86h-.29c-2.17,0-3.95,1.78-3.95,3.95v18.75c0,2.17,1.78,3.95,3.95,3.95h31.58c2.17,0,3.95-1.78,3.95-3.95v-18.75c0-2.17-1.78-3.95-3.95-3.95ZM15.85,17.5c0-5.6,4.56-10.15,10.15-10.15s10.16,4.56,10.16,10.15v5.86H15.85v-5.86ZM30.54,42.79c.2.59-.3,1.28-.99,1.28h-7.2c-.69,0-1.09-.59-.99-1.28l1.78-5.92c-1.48-.99-2.37-2.76-2.07-4.74.39-1.87,1.87-3.35,3.85-3.75,3.16-.59,5.92,1.68,5.92,4.64,0,1.58-.79,3.06-2.07,3.85l1.78,5.92Z" fill="#fff"/></svg>