<?xml version="1.0" encoding="UTF-8"?><svg id="Layer_1" xmlns="http://www.w3.org/2000/svg" width="52" height="52" viewBox="0 0 52 52"><path d="M42.27,23.89h-25.69v-2.47s0-.03,0-.04c.01-.33.02-.79.03-1.45.01-1.51.32-3.02.93-4.43,1.02-2.35,2.79-4.29,5.05-5.51,2.26-1.22,4.86-1.63,7.38-1.19,1.51.27,2.94.83,4.21,1.65.95.62,1.43.92,1.68,1.01.72.25,1.12.22,1.79-.13.24-.13.54-.39,1.13-.92.51-.45.76-.68.94-.99.38-.66.35-1.72-.07-2.36-.2-.3-.4-.47-.81-.79-2.26-1.79-4.94-3-7.81-3.5-3.88-.69-7.88-.04-11.35,1.83-3.47,1.87-6.21,4.86-7.77,8.48-1.11,2.58-1.58,5.36-1.39,8.13,0,.07-.02.14-.02.21v2.52c-2.06.12-3.72,1.81-3.72,3.9v18.73c0,2.17,1.77,3.94,3.94,3.94h31.54c2.17,0,3.94-1.77,3.94-3.94v-18.73c0-2.17-1.77-3.94-3.94-3.94ZM31.03,43.3c.2.59-.3,1.28-.99,1.28h-7.19c-.69,0-1.08-.59-.99-1.28l1.77-5.91c-1.48-.99-2.37-2.76-2.07-4.73.39-1.87,1.87-3.35,3.84-3.75,3.15-.59,5.91,1.68,5.91,4.63,0,1.58-.79,3.06-2.07,3.84l1.77,5.91Z" fill="#fff"/></svg>