<svg xmlns="http://www.w3.org/2000/svg" height="52" width="52" viewBox="0 0 520 520" fill="#fff"><path d="M123.5 253.3a19 19 0 0 1 15.9 0l93.1 46.9a19 19 0 0 1 10.4 16.7v109.2a18 18 0 0 1-10.4 16.7l-93.1 46.9a19 19 0 0 1-16.3 0l-92.7-46.9A19 19 0 0 1 20 426.1V316.9a18 18 0 0 1 10.4-16.7zm257.1 0a19 19 0 0 1 15.9 0l93.1 46.9a19 19 0 0 1 10.4 16.7v109.2a18 18 0 0 1-10.4 16.7l-93.1 46.9a19 19 0 0 1-16.3 0l-92.7-46.9a19 19 0 0 1-10.3-16.7V316.9a18 18 0 0 1 10.3-16.7zM243.5 30.4a19 19 0 0 1 15.9 0l93.1 46.9A19 19 0 0 1 362.9 94v109.2a18 18 0 0 1-10.4 16.7l-93.1 46.9a19 19 0 0 1-16.3 0l-92.7-46.9a19 19 0 0 1-10.4-16.7V94a18 18 0 0 1 10.4-16.7z"/></svg>