<svg xmlns="http://www.w3.org/2000/svg" height="52" width="52" viewBox="0 0 520 520" fill="#fff"><path d="M443.9 297.6v-3.2a185 185 0 0 0-103.2-164.8v-7.2c0-44-36-80-80-80s-80 36-80 80v7.2A184 184 0 0 0 77.5 294.4v3.2a80 80 0 0 0-57.6 76.8 80.2 80.2 0 0 0 128 64c31.2 24 70.4 39.2 112 39.2s80.8-14.4 112-39.2a82 82 0 0 0 48 16c44 0 80-36 80-80a77 77 0 0 0-56-76.8M172.8 410.4a80 80 0 0 0 8.8-36c0-39.2-28.8-72-66.4-78.4v-1.6c0-56 32-104.8 78.4-129.6 14.4 22.4 39.2 37.6 68 37.6s53.6-15.2 68-37.6A147 147 0 0 1 408 294.4v1.6a80 80 0 0 0-66.4 78.4q.2 19.2 8.8 36c-24.8 19.2-55.2 30.4-88.8 30.4s-64-12-88.8-30.4"/></svg>