<?xml version="1.0" encoding="UTF-8"?><svg id="Layer_1" xmlns="http://www.w3.org/2000/svg" width="52" height="52" viewBox="0 0 52 52"><path d="M26,3C12.68,3,2.07,13.14,2.07,25.59c0,3.96,1.12,7.67,2.87,10.97.32.49.4,1.15.24,1.73l-3.11,8.82c-.32.82.48,1.57,1.28,1.32l8.69-3.38c.48-.25,1.12-.08,1.67.25,3.59,2.06,7.89,3.3,12.52,3.3,13.08-.16,23.76-10.14,23.76-22.76-.08-12.78-10.77-22.84-24-22.84ZM36.6,23.2l-5.58,4.29c-.24.16-.32.49-.24.82l2.63,7.26c.16.66-.48,1.24-1.04.82l-5.98-4.62c-.24-.16-.56-.16-.8,0l-6.06,4.62c-.56.41-1.28-.16-1.04-.82l2.55-7.26c.08-.25,0-.58-.24-.82l-5.58-4.29c-.56-.41-.24-1.4.4-1.4h6.86c.32,0,.56-.08.64-.41l2.15-7.17c.16-.66,1.12-.58,1.28.08l2.07,7.09c.08.25.4.41.64.41h6.86c.18-.07.38-.05.55.03.17.08.3.24.37.42.06.19.05.39-.03.57-.08.18-.23.31-.41.38Z" fill="#fff"/></svg>