<svg xmlns="http://www.w3.org/2000/svg" height="52" width="52" viewBox="0 0 520 520" fill="#fff"><path d="M204.8 236a237 237 0 0 1 28.8-94.4C260 96 302.4 69.6 360 68a72.1 72.1 0 1 1 0 48c-64.8 2.4-100 52.8-107.2 120H360a72.1 72.1 0 1 1 0 48H252.8c5.6 72 39.2 120.8 107.2 120a72.1 72.1 0 1 1 0 48c-59.2.8-102.4-26.4-128.8-72.8-15.2-28-24-60.8-26.4-95.2H160a72.1 72.1 0 1 1 0-48zM428 116c13.6 0 24-10.4 24-24s-10.4-24-24-24-24 10.4-24 24 10.4 24 24 24m0 336c13.6 0 24-10.4 24-24s-10.4-24-24-24-24 10.4-24 24 10.4 24 24 24m0-168c13.6 0 24-10.4 24-24s-10.4-24-24-24-24 10.4-24 24 10.4 24 24 24m-336 0c13.6 0 24-10.4 24-24s-10.4-24-24-24-24 10.4-24 24 10.4 24 24 24"/></svg>