<?xml version="1.0" encoding="UTF-8"?><svg id="Layer_1" xmlns="http://www.w3.org/2000/svg" width="52" height="52" viewBox="0 0 52 52"><path d="M21.21,44.01c.8,1.9,2,3.69,3.49,5.19.22.15.39.36.59.58l.21.22h-3.99c-.73,0-1.38-.59-1.49-1.3v-3.19c0-.7.49-1.4,1.19-1.5ZM35.12,25.95c6.63,0,12,5.37,12,12s-5.37,12-12,12-12-5.37-12-12,5.37-12,12-12ZM14.52,43.91c.73,0,1.38.59,1.49,1.3v3.19c0,.73-.58,1.38-1.29,1.49H5.54c-.73,0-1.38-.58-1.49-1.29v-3.19c0-.73.58-1.38,1.29-1.49h9.18ZM33.14,30.27c-.23,0-.46.23-.46.46v3.29c0,.23.23.46.46.46h1.38v2.11h-4.08c-.23,0-.46.2-.46.43v3.45h-1.35c-.23,0-.46.23-.46.46v3.29c0,.23.23.46.46.46h4.51c.23,0,.46-.23.46-.46v-3.29c0-.23-.23-.46-.46-.46h-1.35v-2.11h7.2v2.11h-1.35c-.23,0-.46.23-.46.46v3.29c0,.23.23.46.46.46h4.51c.23,0,.43-.23.43-.46v-3.29c0-.23-.2-.46-.43-.46h-1.38v-3.45c0-.23-.23-.43-.46-.43h-4.01v-2.11h1.35c.23,0,.43-.23.43-.46v-3.29c0-.23-.2-.46-.43-.46h-4.52ZM14.52,33.93c.73,0,1.38.59,1.49,1.3v3.19c0,.73-.58,1.38-1.29,1.49H5.54c-.73,0-1.38-.58-1.49-1.29v-3.19c0-.73.58-1.38,1.29-1.49h9.18ZM14.52,23.95c.73,0,1.38.59,1.49,1.3v3.19c0,.73-.58,1.38-1.29,1.49H5.54c-.73,0-1.38-.58-1.49-1.29v-3.19c0-.73.58-1.38,1.29-1.49h9.18ZM28.2,23.95c-1.2.7-2.4,1.6-3.49,2.69-.83.83-1.53,1.74-2.14,2.7l-.36.59h-.7c-.73,0-1.38-.59-1.49-1.3v-3.19c0-.73.58-1.38,1.29-1.49h6.89ZM46.46,23.95c.73,0,1.38.59,1.49,1.3v2.1c-.19-.2-.39-.5-.69-.7-.86-.94-1.86-1.74-2.94-2.39l-.55-.31h2.69ZM14.52,13.98c.73,0,1.38.59,1.49,1.3v3.19c0,.73-.58,1.38-1.29,1.49H5.54c-.73,0-1.38-.58-1.49-1.29v-3.19c0-.73.58-1.38,1.29-1.49h.2s8.98,0,8.98,0ZM30.49,13.98c.73,0,1.38.59,1.49,1.3v3.19c0,.73-.58,1.38-1.29,1.49h-9.18c-.73,0-1.38-.58-1.49-1.29v-3.19c0-.73.58-1.38,1.29-1.49h.2s8.98,0,8.98,0ZM46.46,13.98c.73,0,1.38.59,1.49,1.3v3.19c0,.73-.58,1.38-1.29,1.49h-9.18c-.73,0-1.38-.58-1.49-1.29v-3.19c0-.73.58-1.38,1.29-1.49h.2s8.98,0,8.98,0ZM46.46,2c.73,0,1.38.59,1.49,1.3v5.19c0,.73-.58,1.38-1.29,1.49H5.54c-.73,0-1.38-.58-1.49-1.29V3.5c0-.73.58-1.38,1.29-1.49h.2s40.91,0,40.91,0Z" fill="#fff"/></svg>