<?xml version="1.0" encoding="UTF-8"?><svg id="Layer_1" xmlns="http://www.w3.org/2000/svg" width="52" height="52" viewBox="0 0 52 52"><path d="M28.03,20.11c0-.63.52-1.15,1.15-1.15s1.15.52,1.15,1.15-.52,1.15-1.15,1.15-1.15-.52-1.15-1.15ZM36.5,40.25h4.5v4.95c0,2.6-2.06,4.8-4.5,4.8H15.5c-2.44,0-4.5-2.2-4.5-4.8v-4.95h4.5v.15c0,.9.66,1.6,1.5,1.6h18c.84,0,1.5-.7,1.5-1.6v-.15h0ZM28.25,46c0-1.4-.94-2.4-2.25-2.4s-2.25,1-2.25,2.4.94,2.4,2.25,2.4,2.25-1,2.25-2.4ZM15.5,10c0-.9.66-1.6,1.5-1.6h18c.84,0,1.5.7,1.5,1.6v.25h4.5v-3.45c0-2.6-2.06-4.8-4.5-4.8H15.51c-2.44,0-4.5,2.2-4.5,4.8v3.45h4.5v-.25h0ZM21.57,26.46h8.37c.32,0,.49-.32.32-.58l-2.28-3.63c-.11-.18-.38-.18-.49,0l-1.24,1.79c-.11.18-.38.14-.49-.03l-1.53-2.62c-.11-.2-.38-.2-.49,0l-2.54,4.42c-.18.29.03.66.38.66h-.02ZM45.5,16.25v18c0,1.66-1.34,3-3,3H9.5c-1.66,0-3-1.34-3-3v-18c0-1.66,1.34-3,3-3h33c1.66,0,3,1.34,3,3ZM19.09,27.62c0,.63.52,1.15,1.15,1.15h11.54c.63,0,1.15-.52,1.15-1.15v-9.23c0-.63-.52-1.15-1.15-1.15h-11.54c-.63,0-1.15.52-1.15,1.15,0,0,0,9.23,0,9.23ZM35,32.38c0-.62-.5-1.13-1.13-1.13h-15.75c-.62,0-1.13.5-1.13,1.13s.5,1.13,1.13,1.13h15.75c.62,0,1.13-.5,1.13-1.13Z" fill="#fff"/></svg>