<?xml version="1.0" encoding="UTF-8"?><svg id="Layer_1" xmlns="http://www.w3.org/2000/svg" width="52" height="52" viewBox="0 0 52 52"><path d="M16.66,11.6h17.68c.43,0,.84-.17,1.13-.47.3-.3.47-.7.47-1.13v-3.2c0-1.27-.51-2.5-1.41-3.39-.91-.9-2.13-1.41-3.41-1.41h-11.25c-1.28,0-2.51.5-3.41,1.41-.91.9-1.41,2.12-1.41,3.39v3.2c0,.42.17.83.47,1.13.31.3.71.47,1.13.47ZM46.59,7.41c-.91-.9-2.13-1.41-3.41-1.41h-1.61c-.22,0-.42.09-.57.23-.15.15-.23.35-.23.57v3.2c0,1.7-.67,3.33-1.88,4.53-1.21,1.2-2.84,1.87-4.55,1.87h-17.68c-1.7,0-3.34-.67-4.55-1.87-1.21-1.2-1.88-2.83-1.88-4.53v-3.2c0-.22-.09-.42-.23-.57-.14-.15-.35-.23-.57-.23h-1.61c-1.28,0-2.51.5-3.41,1.41-.91.9-1.41,2.12-1.41,3.39v34.4c0,1.27.51,2.5,1.41,3.39.91.9,2.13,1.41,3.41,1.41h35.36c1.28,0,2.51-.5,3.41-1.41.91-.9,1.41-2.12,1.41-3.39V10.8c0-1.27-.51-2.5-1.41-3.39ZM29.5,32.49l-3.73,1.85c-1.12.55-2.02,1.46-2.59,2.57l-1.86,3.7c-.27.53-1.03.53-1.29,0l-1.86-3.7c-.56-1.11-1.46-2.01-2.59-2.57l-3.73-1.85c-.53-.26-.53-1.02,0-1.28l3.73-1.85c1.12-.55,2.02-1.46,2.59-2.57l1.86-3.7c.27-.53,1.03-.53,1.29,0l1.86,3.7c.56,1.11,1.46,2.01,2.59,2.57l3.73,1.85c.53.26.53,1.02,0,1.28ZM37.63,41.26l-1.6.79c-.47.24-.88.62-1.11,1.1l-.8,1.58c-.11.23-.44.23-.55,0l-.8-1.58c-.24-.47-.63-.86-1.11-1.1l-1.6-.79c-.23-.11-.23-.44,0-.55l1.6-.79c.47-.24.88-.62,1.11-1.1l.8-1.58c.11-.23.44-.23.55,0l.8,1.58c.24.47.63.86,1.11,1.1l1.6.79c.23.11.23.44,0,.55ZM37.63,22.98l-1.6.79c-.47.24-.88.62-1.11,1.1l-.8,1.58c-.11.23-.44.23-.55,0l-.8-1.58c-.24-.47-.63-.86-1.11-1.1l-1.6-.79c-.23-.11-.23-.44,0-.55l1.6-.79c.47-.24.88-.62,1.11-1.1l.8-1.58c.11-.23.44-.23.55,0l.8,1.58c.24.47.63.86,1.11,1.1l1.6.79c.23.11.23.44,0,.55Z" fill="#fff"/></svg>