<svg xmlns="http://www.w3.org/2000/svg" height="52" width="52" viewBox="0 0 520 520" fill="#fff"><path d="M272.9 236.9c3.2 0 6.4 3.2 6.4 7.1v51.6c0 3.2 2.6 5.8 6.5 5.8 3.2 0 6.5 3.2 6.5 7.1v12.9c0 3.2-2.6 5.8-6.5 5.8h-51.6c-3.2 0-6.5-1.9-6.5-5.8v-12.9c0-3.2 2.6-7.1 6.5-7.1 3.2 0 6.4-1.9 6.4-5.8v-25.8c0-3.2-2.6-7.1-6.4-7.1-3.2 0-6.5-1.9-6.5-5.8V244c0-3.2 2.6-7.1 6.5-7.1zm-12.9-51c11 0 19.4 8.4 19.4 19.4s-8.4 19.4-19.4 19.4-19.4-8.4-19.4-19.4 8.4-19.4 19.4-19.4M243.7 23.7a38 38 0 0 1 32.6 0L467 117.4a38 38 0 0 1 21.2 33.4v218.4a36 36 0 0 1-21.2 33.4l-190.7 93.7a40 40 0 0 1-33.4 0L53 402.6a38 38 0 0 1-21.2-33.4V150.8A36 36 0 0 1 53 117.4zm16.3 109c-70.6 0-127.3 56.8-127.3 127.3S189.5 387.3 260 387.3 387.3 330.5 387.3 260 330.5 132.7 260 132.7"/></svg>