<svg xmlns="http://www.w3.org/2000/svg" height="52" width="52" viewBox="0 0 520 520" fill="#fff"><path d="M472.4 212.6a54 54 0 0 0-56.6 0 68 68 0 0 0-20 22.3H124.4a53.3 53.3 0 0 0-91.8-9.6 55 55 0 0 0-9.4 53A57 57 0 0 0 63 314.7q18.2 4.6 35.1-4a50 50 0 0 0 26.3-24.7h271.4a55.3 55.3 0 0 0 75.2 23.5 54 54 0 0 0 20.6-20.3 55 55 0 0 0 6.6-42.7 56 56 0 0 0-25.8-34.6v.8Zm0-183.6a54 54 0 0 0-56.6 0 68 68 0 0 0-20 22.3H124.4a53.3 53.3 0 0 0-91.8-9.6 55 55 0 0 0-9.4 53A57 57 0 0 0 63 131.1q18.2 4.6 35.1-4a50 50 0 0 0 26.3-24.7h271.4a55.3 55.3 0 0 0 75.2 23.5 54 54 0 0 0 20.6-20.3 55 55 0 0 0 6.6-42.7 56 56 0 0 0-25.8-34.6zm0 367.2a54 54 0 0 0-56.6 0 68 68 0 0 0-20 22.3H124.4a53.3 53.3 0 0 0-91.8-9.6 55 55 0 0 0-9.4 53A57 57 0 0 0 63 498.3q18.2 4.6 35.1-4a50 50 0 0 0 26.3-24.7h271.4a55.3 55.3 0 0 0 75.2 23.5 54 54 0 0 0 20.6-20.3 55 55 0 0 0 6.6-42.7 56 56 0 0 0-25.8-34.6v.8Z"/></svg>