<?xml version="1.0" encoding="UTF-8"?><svg id="Layer_1" xmlns="http://www.w3.org/2000/svg" width="52" height="52" viewBox="0 0 52 52"><path d="M36.16,32.19l-1.63,1.63c-.47.47-1.16.47-1.63,0l-6.51-6.51c-.15-.23-.31-.54-.31-.85v-10.16c0-.62.54-1.16,1.16-1.16h2.33c.62-.01,1.16.53,1.16,1.15v8.76l5.43,5.5c.47.47.47,1.16,0,1.63ZM28.39,4.29c-11.48.01-20.85,8.91-21.62,20.16-.01.23-.04.54-.05.78h-3.52c-1.01,0-1.55,1.16-.93,1.86l5.81,7.05c.47.54,1.32.54,1.78,0l5.81-7.05c.62-.78.08-1.86-.93-1.86,0,0-3.41,0-3.41,0,0-1.28.2-2.54.54-3.78.31-1.13.75-2.23,1.29-3.27s1.18-2,1.91-2.91,1.55-1.72,2.44-2.45,1.87-1.38,2.89-1.92,2.13-.99,3.26-1.31,2.34-.53,3.54-.61c.37-.02.74-.04,1.1-.04,10.09,0,18.07,8.76,16.98,19-.78,7.36-7.75,14.35-15.2,15.05-5.5.54-10.71-1.47-14.35-5.43-.47-.54-1.09-.85-1.71-.08l-1.86,2.25c-.39.47-.08.78.31,1.16,4.19,4.42,9.93,6.9,16.13,6.82,11.17-.16,20.55-8.99,21.32-20.16,1.01-12.63-9.07-23.25-21.54-23.26Z" fill="#fff"/></svg>