<?xml version="1.0" encoding="UTF-8"?><svg id="Layer_1" xmlns="http://www.w3.org/2000/svg" width="52" height="52" viewBox="0 0 52 52"><path d="M26,2c13.25,0,24,10.75,24,24,0,3.92-.94,7.62-2.61,10.89l2.55,10.49c.17.72-.04,1.48-.56,2s-1.28.73-2,.56l-10.49-2.55c-3.27,1.67-6.97,2.61-10.89,2.61-13.25,0-24-10.75-24-24S12.75,2,26,2ZM26,6.24C15.08,6.24,6.24,15.08,6.24,26s8.85,19.76,19.76,19.76c3.48,0,6.75-.9,9.58-2.47l.36-.16c.37-.12.78-.14,1.17-.05l7.89,1.92-1.92-7.89c-.13-.52-.05-1.06.21-1.53,1.58-2.84,2.47-6.1,2.47-9.58,0-10.92-8.85-19.76-19.76-19.76Z" fill="#fff"/></svg>