<?xml version="1.0" encoding="UTF-8"?><svg id="Layer_1" xmlns="http://www.w3.org/2000/svg" width="52" height="52" viewBox="0 0 52 52"><path d="M33.76,2c2.44,0,4.75,1.15,6.21,3.1l5.65,7.53c1.01,1.34,1.55,2.98,1.55,4.66v22.12c0,5.85-4.74,10.59-10.59,10.59H15.41c-5.85,0-10.59-4.74-10.59-10.59V12.59c0-5.85,4.74-10.59,10.59-10.59,0,0,18.35,0,18.35,0ZM15.41,6.24c-3.51,0-6.35,2.84-6.35,6.35v26.82c0,3.51,2.84,6.35,6.35,6.35h21.18c3.51,0,6.35-2.84,6.35-6.35v-22.12c0-.76-.25-1.51-.71-2.12l-5.65-7.53c-.67-.89-1.71-1.41-2.82-1.41H15.41ZM30.94,9.06c1.17,0,2.12.95,2.12,2.12v4.94h4.94c1.17,0,2.12.95,2.12,2.12s-.95,2.12-2.12,2.12h-7.06c-1.17,0-2.12-.95-2.12-2.12v-7.06c0-1.17.95-2.12,2.12-2.12Z" fill="#fff"/></svg>