<?xml version="1.0" encoding="UTF-8"?><svg id="Layer_1" xmlns="http://www.w3.org/2000/svg" width="52" height="52" viewBox="0 0 52 52"><path d="M39.41,2c5.85,0,10.59,4.74,10.59,10.59v26.82c0,5.85-4.74,10.59-10.59,10.59h-8.47c-1.17,0-2.12-.95-2.12-2.12s.95-2.12,2.12-2.12h8.47c3.51,0,6.35-2.84,6.35-6.35V12.59c0-3.51-2.84-6.35-6.35-6.35H12.59c-3.51,0-6.35,2.84-6.35,6.35v8.47c0,1.17-.95,2.12-2.12,2.12s-2.12-.95-2.12-2.12v-8.47c0-5.85,4.74-10.59,10.59-10.59h26.82ZM14.71,24.99c6.8,0,12.31,5.51,12.31,12.31s-5.51,12.31-12.31,12.31-12.31-5.51-12.31-12.31,5.51-12.31,12.31-12.31ZM20.5,33.43c-.81-.84-2.15-.86-2.99-.05l-4.65,4.49-1.38-1.33c-.84-.81-2.18-.79-2.99.05-.81.84-.79,2.18.05,2.99l2.85,2.76c.82.79,2.13.8,2.95,0l6.12-5.92c.84-.81.86-2.15.05-2.99h-.01ZM40.45,34.43c1.17,0,2.12.95,2.12,2.12s-.95,2.12-2.12,2.12h-7.06c-1.17,0-2.12-.95-2.12-2.12s.95-2.12,2.12-2.12h7.06ZM40.45,24.02c1.17,0,2.12.95,2.12,2.12s-.95,2.12-2.12,2.12h-11.29c-1.17,0-2.12-.95-2.12-2.12s.95-2.12,2.12-2.12h11.29ZM19.42,11.43c1.93,0,3.3,1.36,3.3,3.04,0,2.16-1.87,4.22-4.27,5.88-.95.65-1.52.97-2.08.97s-1.14-.33-2.09-.98c-2.4-1.64-4.26-3.71-4.26-5.87,0-1.68,1.38-3.04,3.3-3.04,2.3,0,3.04,2.09,3.06,2.14.02-.05.74-2.14,3.06-2.14h-.02ZM40.45,13.61c1.17,0,2.12.95,2.12,2.12s-.95,2.12-2.12,2.12h-12.71c-1.17,0-2.12-.95-2.12-2.12s.95-2.12,2.12-2.12c0,0,12.71,0,12.71,0Z" fill="#fff"/></svg>