<?xml version="1.0" encoding="UTF-8"?><svg id="Layer_1" xmlns="http://www.w3.org/2000/svg" width="52" height="52" viewBox="0 0 52 52"><path d="M39.12,2c6.01,0,10.88,4.87,10.88,10.88v15.27c0,2.52-1,4.94-2.78,6.72l-12.35,12.35c-1.78,1.78-4.2,2.78-6.72,2.78h-15.27c-6.01,0-10.88-4.87-10.88-10.88V12.88C2,6.87,6.87,2,12.88,2c0,0,26.24,0,26.24,0ZM12.88,7.18c-3.15,0-5.7,2.55-5.7,5.7v26.24c0,3.15,2.55,5.7,5.7,5.7h14.68v-12.09c0-2.86,2.32-5.18,5.18-5.18h12.09v-14.68c0-3.15-2.55-5.7-5.7-5.7H12.88ZM32.73,42.02l9.29-9.29h-9.29v9.29ZM20.65,20.82c1.43,0,2.59,1.16,2.59,2.59s-1.16,2.59-2.59,2.59h-4.49c-1.43,0-2.59-1.16-2.59-2.59s1.16-2.59,2.59-2.59h4.49ZM35.84,12.53c1.43,0,2.59,1.16,2.59,2.59s-1.16,2.59-2.59,2.59h-19.68c-1.43,0-2.59-1.16-2.59-2.59s1.16-2.59,2.59-2.59c0,0,19.68,0,19.68,0Z" fill="#fff"/></svg>