<?xml version="1.0" encoding="UTF-8"?><svg id="Layer_1" xmlns="http://www.w3.org/2000/svg" width="52" height="52" viewBox="0 0 52 52"><path d="M43.25,18.5c1.24,0,2.25,1.01,2.25,2.25v.75c0,10.01-7.54,18.25-17.25,19.37v4.63h4.5c1.24,0,2.25,1.01,2.25,2.25s-1.01,2.25-2.25,2.25h-13.5c-1.24,0-2.25-1.01-2.25-2.25s1.01-2.25,2.25-2.25h4.5v-4.63c-9.71-1.12-17.25-9.36-17.25-19.37v-.75c0-1.24,1.01-2.25,2.25-2.25s2.25,1.01,2.25,2.25v.75c0,8.28,6.72,15,15,15s15-6.72,15-15v-.75c0-1.24,1.01-2.25,2.25-2.25ZM26,2c5.8,0,10.5,4.7,10.5,10.5v9c0,5.8-4.7,10.5-10.5,10.5s-10.5-4.7-10.5-10.5v-9c0-5.8,4.7-10.5,10.5-10.5ZM26,6.5c-3.31,0-6,2.69-6,6v9c0,3.31,2.69,6,6,6s6-2.69,6-6v-9c0-3.31-2.69-6-6-6Z" fill="#fff"/></svg>