<?xml version="1.0" encoding="UTF-8"?><svg id="Layer_1" xmlns="http://www.w3.org/2000/svg" width="52" height="52" viewBox="0 0 52 52"><path d="M42.41,4.68c4.23.21,7.59,3.71,7.59,7.99v26.67c0,4.28-3.36,7.78-7.59,7.99H10c-4.42,0-8-3.57-8-7.99V12.67c0-4.42,3.58-8,8-8h32.41ZM24.29,37.21c-1.23,1.23-3.2,1.31-4.53.17l-7.05-6.04-5.4,4.99c-.84.77-1.32,1.86-1.32,3.01,0,2.21,1.79,4,4,4h32c2.21,0,4-1.79,4-4,0-1.2-.46-2.35-1.29-3.22l-9.42-9.91-11.01,11.01h.02ZM10,8.67c-2.21,0-4,1.79-4,4v19.43l4.44-4.1.24-.2c1.16-.88,2.76-.91,3.94-.07l.25.19,7.03,6.02,11.06-11.05.26-.23c1.24-1.01,3.04-.99,4.26.05l.25.24,8.27,8.71V12.67c0-2.21-1.79-4-4-4H10ZM20.67,11.33c3.68,0,6.67,2.98,6.67,6.67s-2.98,6.67-6.67,6.67-6.67-2.98-6.67-6.67,2.98-6.67,6.67-6.67ZM20.67,15.33c-1.47,0-2.67,1.19-2.67,2.67s1.19,2.67,2.67,2.67,2.67-1.19,2.67-2.67-1.19-2.67-2.67-2.67Z" fill="#fff"/></svg>