<?xml version="1.0" encoding="UTF-8"?><svg id="Layer_1" xmlns="http://www.w3.org/2000/svg" width="52" height="52" viewBox="0 0 52 52"><path d="M20.75,8c1.24,0,2.25,1.01,2.25,2.25s-1.01,2.25-2.25,2.25h-7.5c-3.73,0-6.75,3.02-6.75,6.75v19.5c0,3.73,3.02,6.75,6.75,6.75h19.5c3.73,0,6.75-3.02,6.75-6.75v-7.5c0-1.24,1.01-2.25,2.25-2.25s2.25,1.01,2.25,2.25v7.5c0,6.21-5.04,11.25-11.25,11.25H13.25c-6.21,0-11.25-5.04-11.25-11.25v-19.5c0-6.21,5.04-11.25,11.25-11.25h7.5ZM47.75,2c1.24,0,2.25,1.01,2.25,2.25v13.5c0,1.24-1.01,2.25-2.25,2.25s-2.25-1.01-2.25-2.25v-8.07l-21.66,21.66c-.88.88-2.3.88-3.18,0s-.88-2.3,0-3.18L42.32,6.5h-8.07c-1.24,0-2.25-1.01-2.25-2.25s1.01-2.25,2.25-2.25h13.5Z" fill="#fff"/></svg>