<?xml version="1.0" encoding="UTF-8"?><svg id="Layer_1" xmlns="http://www.w3.org/2000/svg" width="52" height="52" viewBox="0 0 52 52"><path d="M31.74,6.8c3.41,0,6.17,2.76,6.17,6.17v3.55l7.2-4.15c2.29-1.32,5.14.34,5.14,2.97v21.31c0,2.64-2.85,4.29-5.14,2.97l-7.2-4.15v3.55c0,3.41-2.76,6.17-6.17,6.17H8.42c-3.41,0-6.17-2.76-6.17-6.17V12.97c0-3.41,2.76-6.17,6.17-6.17h23.32ZM8.42,10.91c-1.14,0-2.06.92-2.06,2.06v26.06c0,1.14.92,2.06,2.06,2.06h23.31c1.14,0,2.06-.92,2.06-2.06v-7.11c0-.73.39-1.41,1.03-1.78s1.42-.37,2.05,0l9.26,5.33v-18.94l-9.26,5.33c-.64.37-1.42.36-2.05,0-.64-.37-1.03-1.05-1.03-1.78v-7.11c0-1.14-.92-2.06-2.06-2.06,0,0-23.31,0-23.31,0Z" fill="#fff"/></svg>