<?xml version="1.0" encoding="UTF-8"?><svg id="Layer_1" xmlns="http://www.w3.org/2000/svg" width="52" height="52" viewBox="0 0 52 52"><path d="M14.5,44c.8,0,1.5.7,1.5,1.5v3c0,.8-.7,1.5-1.5,1.5H5.5c-.8,0-1.5-.7-1.5-1.5v-3c0-.8.7-1.5,1.5-1.5h9ZM30.5,44c.8,0,1.5.7,1.5,1.5v3c0,.8-.7,1.5-1.5,1.5h-9c-.8,0-1.5-.7-1.5-1.5v-3c0-.8.7-1.5,1.5-1.5h9ZM40.15,34.34c.23-.45.88-.45,1.11,0l1.6,3.19c.48.96,1.26,1.73,2.21,2.21l3.2,1.59c.45.23.45.88,0,1.1h0l-3.2,1.59c-.96.48-1.73,1.26-2.21,2.21l-1.6,3.19c-.23.45-.88.45-1.11,0l-1.6-3.19c-.48-.96-1.26-1.73-2.21-2.21l-3.19-1.59c-.45-.23-.45-.88,0-1.1l3.2-1.59c.96-.48,1.73-1.26,2.21-2.21l1.59-3.19ZM14.5,33.99c.8,0,1.5.7,1.5,1.5v3c0,.8-.7,1.5-1.5,1.5H5.5c-.8,0-1.5-.7-1.5-1.5v-3c0-.8.7-1.5,1.5-1.5h9ZM30.5,33.99c.8,0,1.5.7,1.5,1.5v3c0,.8-.7,1.5-1.5,1.5h-9c-.8,0-1.5-.7-1.5-1.5v-3c0-.8.7-1.5,1.5-1.5h9ZM14.5,24c.8,0,1.5.7,1.5,1.5v3c0,.8-.7,1.5-1.5,1.5H5.5c-.8,0-1.5-.7-1.5-1.5v-3c0-.8.7-1.5,1.5-1.5h9ZM30.5,24c.8,0,1.5.7,1.5,1.5v3c0,.8-.7,1.5-1.5,1.5h-9c-.8,0-1.5-.7-1.5-1.5v-3c0-.8.7-1.5,1.5-1.5h9ZM46.5,24c.8,0,1.5.7,1.5,1.5v3c0,.8-.7,1.5-1.5,1.5h-9c-.8,0-1.5-.7-1.5-1.5v-3c0-.8.7-1.5,1.5-1.5h9ZM14.5,14c.8,0,1.5.7,1.5,1.5v3c0,.8-.7,1.5-1.5,1.5H5.5c-.8,0-1.5-.7-1.5-1.5v-3c0-.8.7-1.5,1.5-1.5h9ZM30.5,14c.8,0,1.5.7,1.5,1.5v3c0,.8-.7,1.5-1.5,1.5h-9c-.8,0-1.5-.7-1.5-1.5v-3c0-.8.7-1.5,1.5-1.5h9ZM46.5,14c.8,0,1.5.7,1.5,1.5v3c0,.8-.7,1.5-1.5,1.5h-9c-.8,0-1.5-.7-1.5-1.5v-3c0-.8.7-1.5,1.5-1.5h9ZM46.5,2c.8,0,1.5.7,1.5,1.5v5c0,.8-.7,1.5-1.5,1.5H5.5c-.8,0-1.5-.7-1.5-1.5V3.5c0-.8.7-1.5,1.5-1.5h41Z" fill="#fff"/></svg>