<?xml version="1.0" encoding="UTF-8"?><svg id="Layer_1" xmlns="http://www.w3.org/2000/svg" width="52" height="52" viewBox="0 0 52 52"><path d="M46.5,2H5.5c-.8,0-1.5.7-1.5,1.5v5c0,.8.7,1.5,1.5,1.5h41c.8,0,1.5-.7,1.5-1.5V3.5c0-.8-.7-1.5-1.5-1.5ZM14.5,14H5.5c-.8,0-1.5.7-1.5,1.5v3c0,.8.7,1.5,1.5,1.5h9c.8,0,1.5-.7,1.5-1.5v-3c0-.8-.7-1.5-1.5-1.5ZM30.5,14h-9c-.8,0-1.5.7-1.5,1.5v3c0,.8.7,1.5,1.5,1.5h9c.8,0,1.5-.7,1.5-1.5v-3c0-.8-.7-1.5-1.5-1.5ZM46.5,14h-9c-.8,0-1.5.7-1.5,1.5v3c0,.8.7,1.5,1.5,1.5h9c.8,0,1.5-.7,1.5-1.5v-3c0-.8-.7-1.5-1.5-1.5ZM14.5,24H5.5c-.8,0-1.5.7-1.5,1.5v3c0,.8.7,1.5,1.5,1.5h9c.8,0,1.5-.7,1.5-1.5v-3c0-.8-.7-1.5-1.5-1.5ZM30.5,24h-9c-.8,0-1.5.7-1.5,1.5v3c0,.8.7,1.5,1.5,1.5h9c.8,0,1.5-.7,1.5-1.5v-3c0-.8-.7-1.5-1.5-1.5ZM46.5,24h-9c-.8,0-1.5.7-1.5,1.5v3c0,.8.7,1.5,1.5,1.5h9c.8,0,1.5-.7,1.5-1.5v-3c0-.8-.7-1.5-1.5-1.5ZM14.5,34H5.5c-.8,0-1.5.7-1.5,1.5v3c0,.8.7,1.5,1.5,1.5h9c.8,0,1.5-.7,1.5-1.5v-3c0-.8-.7-1.5-1.5-1.5ZM29.04,34h-7.75c-.69,0-1.29.7-1.29,1.5v3c0,.8.6,1.5,1.29,1.5h7.75c.69,0,1.29-.7,1.29-1.5v-3c0-.8-.6-1.5-1.29-1.5ZM14.5,44H5.5c-.8,0-1.5.7-1.5,1.5v3c0,.8.7,1.5,1.5,1.5h9c.8,0,1.5-.7,1.5-1.5v-3c0-.8-.7-1.5-1.5-1.5ZM29.04,44h-7.75c-.69,0-1.29.7-1.29,1.5v3c0,.8.6,1.5,1.29,1.5h7.75c.69,0,1.29-.7,1.29-1.5v-3c0-.8-.6-1.5-1.29-1.5ZM47.27,38.7l-8.54,8.65c-.34.33-.89.33-1.23,0l-4.69-4.75c-.33-.34-.33-.89,0-1.23l1.23-1.23c.33-.33.89-.33,1.23,0l2.46,2.51c.22.22.61.22.84,0l6.25-6.48c.34-.34.89-.34,1.23,0l1.23,1.23c.39.34.39.89,0,1.28h0Z" fill="#fff" fill-rule="evenodd"/></svg>