<?xml version="1.0" encoding="UTF-8"?><svg id="Layer_1" xmlns="http://www.w3.org/2000/svg" width="52" height="52" viewBox="0 0 52 52"><path d="M21.21,44.01c.8,1.9,2,3.69,3.49,5.19.22.15.39.36.59.57l.21.22h-3.99c-.73,0-1.38-.59-1.48-1.3v-.2s-.01-2.99-.01-2.99c0-.7.5-1.4,1.2-1.5ZM14.52,43.91c.73,0,1.38.59,1.48,1.3v.2s.01,2.99.01,2.99c0,.73-.59,1.38-1.3,1.48h-.2s-8.98.01-8.98.01c-.73,0-1.38-.59-1.48-1.3v-.2s-.01-2.99-.01-2.99c0-.73.59-1.38,1.3-1.48h.2s8.98-.01,8.98-.01ZM35.48,25.23c6.63,0,12,5.37,12,12,0,6.63-5.37,12-12,12s-12-5.37-12-12c0-6.63,5.37-12,12-12ZM36.34,31.99c-.26-.07-.56.1-.63.36l-2.44,9.36c-.07.26.1.53.36.59l.99.23c.26.07.56-.1.63-.36l2.44-9.36c.07-.3-.1-.53-.36-.59l-.99-.23ZM40.09,32.15c-.16-.2-.46-.26-.69-.07l-.76.63c-.23.16-.26.49-.07.69l3.13,3.86-3.13,3.86c-.16.2-.13.53.07.69l.76.63c.23.16.49.13.69-.07l3.86-4.81c.13-.23.13-.46,0-.63l-3.86-4.78ZM31.52,32.05c-.23-.16-.5-.13-.69.07l-3.82,4.81c-.13.16-.13.43,0,.63l3.86,4.78c.16.2.46.26.69.07l.76-.63c.23-.17.26-.49.07-.69l-3.1-3.86,3.13-3.86c.13-.2.1-.49-.13-.69l-.76-.63ZM14.52,33.93c.73,0,1.38.59,1.48,1.3v.2s.01,2.99.01,2.99c0,.73-.59,1.38-1.3,1.48h-.2s-8.98.01-8.98.01c-.73,0-1.38-.59-1.48-1.3v-.2s-.01-2.99-.01-2.99c0-.73.59-1.38,1.3-1.48h.2s8.98-.01,8.98-.01ZM14.52,23.95c.73,0,1.38.59,1.48,1.3v.2s.01,2.99.01,2.99c0,.73-.59,1.38-1.3,1.48h-.2s-8.98.01-8.98.01c-.73,0-1.38-.59-1.48-1.3v-.2s-.01-2.99-.01-2.99c0-.73.59-1.38,1.3-1.48h.2s8.98-.01,8.98-.01ZM28.2,23.95c-1.2.7-2.39,1.6-3.49,2.69-.83.83-1.52,1.73-2.14,2.7l-.36.59h-.7c-.73,0-1.38-.59-1.48-1.3v-.2s-.01-2.99-.01-2.99c0-.73.59-1.38,1.3-1.48h.2s6.69-.01,6.69-.01ZM46.46,23.95c.73,0,1.38.59,1.48,1.3v.2s.01,1.9.01,1.9c-.2-.2-.4-.5-.7-.7-.86-.94-1.86-1.73-2.94-2.38l-.55-.31h2.69ZM14.52,13.97c.73,0,1.38.59,1.48,1.3v.2s.01,2.99.01,2.99c0,.73-.59,1.38-1.3,1.48h-.2s-8.98.01-8.98.01c-.73,0-1.38-.59-1.48-1.3v-.2s-.01-2.99-.01-2.99c0-.73.59-1.38,1.3-1.48h.2s8.98-.01,8.98-.01ZM30.49,13.97c.73,0,1.38.59,1.48,1.3v.2s.01,2.99.01,2.99c0,.73-.59,1.38-1.3,1.48h-.2s-8.98.01-8.98.01c-.73,0-1.38-.59-1.48-1.3v-.2s-.01-2.99-.01-2.99c0-.73.59-1.38,1.3-1.48h.2s8.98-.01,8.98-.01ZM46.46,13.97c.73,0,1.38.59,1.48,1.3v.2s.01,2.99.01,2.99c0,.73-.59,1.38-1.3,1.48h-.2s-8.98.01-8.98.01c-.73,0-1.38-.59-1.48-1.3v-.2s-.01-2.99-.01-2.99c0-.73.59-1.38,1.3-1.48h.2s8.98-.01,8.98-.01ZM46.46,2c.73,0,1.38.59,1.48,1.3v.2s.01,4.99.01,4.99c0,.73-.59,1.38-1.3,1.48h-.2s-40.91.01-40.91.01c-.73,0-1.38-.59-1.48-1.3v-.2s-.01-4.99-.01-4.99c0-.73.59-1.38,1.3-1.48h.2s40.91-.01,40.91-.01Z" fill="#fff"/></svg>