<?xml version="1.0" encoding="UTF-8"?><svg id="Layer_1" xmlns="http://www.w3.org/2000/svg" width="52" height="52" viewBox="0 0 52 52"><path d="M46.5,2H5.5c-.8,0-1.5.7-1.5,1.5v5c0,.8.7,1.5,1.5,1.5h41c.8,0,1.5-.7,1.5-1.5V3.5c0-.8-.7-1.5-1.5-1.5ZM14.5,14H5.5c-.8,0-1.5.7-1.5,1.5v3c0,.8.7,1.5,1.5,1.5h9c.8,0,1.5-.7,1.5-1.5v-3c0-.8-.7-1.5-1.5-1.5ZM30.5,14h-9c-.8,0-1.5.7-1.5,1.5v3c0,.8.7,1.5,1.5,1.5h9c.8,0,1.5-.7,1.5-1.5v-3c0-.8-.7-1.5-1.5-1.5ZM46.5,14h-9c-.8,0-1.5.7-1.5,1.5v3c0,.8.7,1.5,1.5,1.5h9c.8,0,1.5-.7,1.5-1.5v-3c0-.8-.7-1.5-1.5-1.5ZM14.5,24H5.5c-.8,0-1.5.7-1.5,1.5v3c0,.8.7,1.5,1.5,1.5h9c.8,0,1.5-.7,1.5-1.5v-3c0-.8-.7-1.5-1.5-1.5ZM30.5,24h-9c-.8,0-1.5.7-1.5,1.5v3c0,.8.7,1.5,1.5,1.5h9c.8,0,1.5-.7,1.5-1.5v-3c0-.8-.7-1.5-1.5-1.5ZM46.5,24h-9c-.8,0-1.5.7-1.5,1.5v3c0,.8.7,1.5,1.5,1.5h9c.8,0,1.5-.7,1.5-1.5v-3c0-.8-.7-1.5-1.5-1.5ZM14.5,34H5.5c-.8,0-1.5.7-1.5,1.5v3c0,.8.7,1.5,1.5,1.5h9c.8,0,1.5-.7,1.5-1.5v-3c0-.8-.7-1.5-1.5-1.5ZM30.5,34h-9c-.8,0-1.5.7-1.5,1.5v3c0,.8.7,1.5,1.5,1.5h9c.8,0,1.5-.7,1.5-1.5v-3c0-.8-.7-1.5-1.5-1.5ZM14.5,44H5.5c-.8,0-1.5.7-1.5,1.5v3c0,.8.7,1.5,1.5,1.5h9c.8,0,1.5-.7,1.5-1.5v-3c0-.8-.7-1.5-1.5-1.5ZM30.5,44h-9c-.8,0-1.5.7-1.5,1.5v3c0,.8.7,1.5,1.5,1.5h9c.8,0,1.5-.7,1.5-1.5v-3c0-.8-.7-1.5-1.5-1.5ZM42.77,34.78l-.98,4.78c0,.2.13.29.29.29h5.1c.36,0,.59.43.43.75l-5.56,9.13c-.23.46-.92.29-.92-.23l.98-5.63c0-.2-.16-.13-.36-.13h-5.37c-.36,0-.62-.52-.43-.85l5.89-8.34c.23-.43.92-.29.92.23h0Z" fill="#fff" fill-rule="evenodd"/></svg>