<?xml version="1.0" encoding="UTF-8"?><svg id="two_way" xmlns="http://www.w3.org/2000/svg" width="52" height="52" viewBox="0 0 52 52"><path d="M36.14,13.31c.41-.41,1.04-.41,1.45,0l12.1,12.01c.41.41.41,1.02,0,1.43l-12.1,11.94c-.41.41-1.04.41-1.45,0l-1.45-1.43c-.41-.41-.41-1.02,0-1.43l6.64-6.55c.41-.48.14-1.23-.48-1.23h-6.71s-.02,0-.03,0H11.16c-.62,0-.9.75-.48,1.23l6.64,6.55c.41.41.41,1.02,0,1.43l-1.45,1.43c-.41.41-1.04.41-1.45,0L2.31,26.75c-.41-.41-.41-1.02,0-1.43l12.1-12.01c.41-.41,1.04-.41,1.45,0l1.52,1.5c.41.41.41,1.02,0,1.43l-6.64,6.55c-.41.41-.14,1.16.48,1.16h6.58s.01,0,.02,0h22.95c.62,0,.9-.75.48-1.16l-6.64-6.55c-.41-.41-.41-1.02,0-1.43l1.52-1.5Z" fill="#fff"/></svg>