<?xml version="1.0" encoding="UTF-8"?><svg id="Layer_1" xmlns="http://www.w3.org/2000/svg" width="52" height="52" viewBox="0 0 52 52"><path d="M46.25,17.43h0c-2.07,0-3.75,1.68-3.75,3.75v9.64c0,2.07,1.68,3.75,3.75,3.75h0c2.07,0,3.75-1.68,3.75-3.75v-9.64c0-2.07-1.68-3.75-3.75-3.75ZM32.75,11h0c-2.07,0-3.75,1.68-3.75,3.75v22.5c0,2.07,1.68,3.75,3.75,3.75h0c2.07,0,3.75-1.68,3.75-3.75V14.75c0-2.07-1.68-3.75-3.75-3.75ZM19.25,2.43h0c-2.07,0-3.75,1.68-3.75,3.75v39.64c0,2.07,1.68,3.75,3.75,3.75h0c2.07,0,3.75-1.68,3.75-3.75V6.18c0-2.07-1.68-3.75-3.75-3.75ZM5.75,17.43h0c-2.07,0-3.75,1.68-3.75,3.75v9.64c0,2.07,1.68,3.75,3.75,3.75h0c2.07,0,3.75-1.68,3.75-3.75v-9.64c0-2.07-1.68-3.75-3.75-3.75Z" fill="#fff"/></svg>