<svg xmlns="http://www.w3.org/2000/svg" xmlns:xlink="http://www.w3.org/1999/xlink" display="none"><symbol viewBox="0 0 1000 1000"  id="custom103" xmlns="http://www.w3.org/2000/svg"><path d="M761 549c-16-8-40-27-75-34 9-10 16-26 23-45q4.5-16.5 3-33c0-10 2-26 0-35-8-29-28-37-51-37s-43 8-51 37c-2 9 0 25 0 35-1 11 0 23 3 33 7 20 14 35 23 46-17 3-33 10-48 19a381 381 0 0150 26l21 11c27 13 42 27 51 39h85v-29s0-17-34-33m-420 23l21-11a374 374 0 0151-26 164 164 0 00-50-19c9-11 16-27 23-46 4-11 5-22 4-33 0-10 2-26-1-35-8-29-28-37-51-37s-43 8-50 37c-3 9-1 25-1 34a89 89 0 003 34c7 19 14 35 23 45-35 7-58 26-75 34-33 16-33 33-33 33v29h86a131 131 0 0150-39m309 20c-24-12-60-41-113-51 13-15 24-39 34-68 7-16 5-30 5-50 0-15 3-38-1-51-11-44-41-56-76-56-34 0-64 12-76 56-3 13 0 36 0 51 0 20-1 35 5 51 10 28 20 52 34 68-53 10-88 39-112 50-50 23-50 49-50 49v43l400 1v-44s0-26-50-49v-1z"/></symbol><symbol viewBox="0 0 1000 1000"  id="custom83" xmlns="http://www.w3.org/2000/svg"><path d="M746 393c4 4 10 4 14 0l14-14c34-34 35-86 2-119l-44-44c-34-28-81-15-108 12l-14 14c-4 4-4 10 0 14zm-180-95c-4-4-10-4-14 0L277 571q-22.5 22.5-33 54l-42 135c-3 8-2 18 2 25 6 10 16 15 26 15l9-1 137-43c20-6 38-17 53-32l274-274c4-4 4-10 0-14zM358 699l-82 26 26-82c3-11 9-20 17-28l67 67c-8 8-18 14-28 17"/></symbol></svg>