<svg xmlns="http://www.w3.org/2000/svg" xmlns:xlink="http://www.w3.org/1999/xlink" display="none"><symbol viewBox="0 0 1000 1000"  id="address" xmlns="http://www.w3.org/2000/svg"><path d="M490 189a237 237 0 00-237 239c0 165 170 316 222 356a25 25 0 0031 0c53-42 221-191 221-356a237 237 0 00-237-239m0 337a100 100 0 11100-100 100 100 0 01-100 100"/></symbol><symbol viewBox="0 0 1000 1000"  id="agent_session" xmlns="http://www.w3.org/2000/svg"><path d="M492 217c-166 0-300 125-300 280 0 50 14 96 38 137 3 5 4 11 2 16l-28 89c-5 16 10 30 26 25l88-31c6-2 12-1 17 2 46 27 100 42 158 42 166 0 300-125 300-280-2-155-136-280-301-280m-82 404c0 6-5 11-11 11h-53c-6 0-11-5-11-11v-68c0-6 5-11 11-11h53c6 0 11 5 11 11zm120 0c0 6-5 11-11 11h-53c-6 0-11-5-11-11V463c0-6 5-11 11-11h53c6 0 11 5 11 11zm120 0c0 6-5 11-11 11h-53c-6 0-11-5-11-11V373c0-6 5-11 11-11h53c6 0 11 5 11 11z"/></symbol><symbol viewBox="0 0 1000 1000"  id="business_unit" xmlns="http://www.w3.org/2000/svg"><path d="M375 200c22 0 41 18 43 40a271 271 0 01164 0c2-22 21-40 44-40h130c24 0 44 20 44 44v131c0 22-17 41-40 43a271 271 0 010 164c22 2 40 21 40 44v131c0 24-19 43-44 43H625c-22 0-41-18-43-40a271 271 0 01-164 0c-2 23-21 40-43 40H244c-25 0-44-19-44-43V626c0-23 18-42 40-44a271 271 0 010-164c-22-2-40-20-40-43V244c0-24 20-44 44-44zM244 615c-6 0-11 4-11 11v130c0 6 5 11 11 11h131c6 0 10-5 10-11V625c0-5-5-10-11-10H245zm382 0c-6 0-11 4-11 11v130c0 6 4 11 11 11h130c6 0 11-5 11-11V625c0-5-5-10-11-10H625zM500 260c-29 0-56 5-82 14v101c0 24-19 43-43 43H274a238 238 0 000 164h101c24 0 43 19 43 43v101a238 238 0 00164 0V625c0-24 19-43 43-43h101a238 238 0 000-164H625c-24 0-43-19-43-44V274c-26-9-53-14-82-14m-256-27c-6 0-11 5-11 11v131c0 6 5 10 11 10h131c6 0 10-5 10-11V245c0-6-5-11-11-11H245z"/></symbol><symbol viewBox="0 0 1000 1000"  id="call" xmlns="http://www.w3.org/2000/svg"><path d="M777 639l-62-50a60 60 0 00-73-2l-59 43c-8 6-19 5-26-2l-97-88-89-98c-7-7-8-18-2-26l43-59c16-22 15-52-2-73l-50-62c-22-28-64-30-89-5l-54 54c-12 12-18 29-18 45 7 127 65 248 150 333s205 143 333 150c17 1 33-6 45-18l54-54c27-24 24-66-4-88"/></symbol><symbol  viewBox="0 0 100 100" id="capacity_plan" xmlns="http://www.w3.org/2000/svg"><path d="M39 32h22a2 2 0 002-2v-4a6 6 0 00-6-6H43a6 6 0 00-6 6v4a2 2 0 002 2m10.8 16.4v11.4h10.7a9.9 9.9 0 00-3.1-7.8c-3.7-3.8-7.6-3.6-7.6-3.6M72 25h-2a.9.9 0 00-1 1v4a8 8 0 01-8 8H39a8 8 0 01-8-8v-4a.9.9 0 00-1-1h-2a6 6 0 00-6 6v43a6 6 0 006 6h44a6 6 0 006-6V31a6 6 0 00-6-6m-7.1 34.3a14.9 14.9 0 11-14.8-15 14.9 14.9 0 0114.8 15"/></symbol><symbol viewBox="0 0 1000 1000"  id="case" xmlns="http://www.w3.org/2000/svg"><path d="M380 290h40c6 0 10-4 10-10v-30h140v30c0 6 4 10 10 10h40c6 0 10-4 10-10v-30c0-33-27-60-60-60H430c-33 0-60 27-60 60v30c0 6 4 10 10 10m360 60H260c-33 0-60 27-60 60v320c0 33 27 60 60 60h480c33 0 60-27 60-60V410c0-33-27-60-60-60"/></symbol><symbol viewBox="0 0 1000 1000"  id="custom_notification" xmlns="http://www.w3.org/2000/svg"><path d="M538 219l-38 182a10 10 0 0011 11h195a20 20 0 0117 29L510 790a19 19 0 01-35-9l38-215c0-7-7-4-14-4l-205-1c-13 0-23-20-16-32l225-319a19 19 0 0135 9"/></symbol><symbol viewBox="0 0 1000 1000"  id="customers" xmlns="http://www.w3.org/2000/svg"><ellipse cx="413" cy="423" rx="122" ry="135"/><path d="M526 574a162 162 0 01-226-1c-55 25-110 57-110 107v21c0 25 20 45 45 45h357c25 0 45-20 45-45v-21c-1-50-55-81-111-106m154-100l-5-3c-4-2-9-2-13 1a138 138 0 01-72 21h-10c-5 13-10 26-17 37l14 6c57 25 97 56 125 98h48a40 40 0 0040-40v-19c0-49-57-79-110-101m-11-132c0-49-36-89-79-89-22 0-41 10-56 25 35 36 57 87 57 144v8c43 0 78-39 78-88"/></symbol><symbol viewBox="0 0 1000 1000"  id="email" xmlns="http://www.w3.org/2000/svg"><path d="M487 550c8 7 19 7 27 0l283-262c5-10 4-26-16-26l-560 1c-15 0-27 14-16 26zm313-150c0-13-16-20-25-11L555 593c-15 14-34 21-54 21s-39-7-54-21L226 389a15 15 0 00-25 11v260c0 33 27 60 60 60h480c33 0 60-27 60-60z"/></symbol><symbol viewBox="0 0 1000 1000"  id="folder" xmlns="http://www.w3.org/2000/svg"><path d="M750 347H466c-18 0-34-10-44-25l-44-76c-8-16-24-26-43-26h-85c-28 0-50 23-50 51v458c0 28 22 51 50 51h500c28 0 50-23 50-51V398c0-28-22-51-50-51m0-102H449c-5 0-8 5-5 9l20 34c2 5 6 8 11 8h275c14 0 28 3 39 8 5 3 11-1 11-8 0-28-22-51-50-51"/></symbol><symbol viewBox="0 0 1000 1000"  id="home" xmlns="http://www.w3.org/2000/svg"><path d="M788 512h-63v275c0 8-5 12-13 12H588c-8 0-13-5-13-12V575H425v212c0 8-5 12-13 12H288c-8 0-13-5-13-12V512h-63c-5 0-10-2-11-8-3-5-1-10 3-14l288-288c5-5 14-5 18 0l288 288c4 4 4 9 3 14s-8 8-13 8"/></symbol><symbol viewBox="0 0 1000 1000"  id="messaging_session" xmlns="http://www.w3.org/2000/svg"><path d="M500 220c166 0 300 125 301 280 0 155-134 280-300 280-58 0-112-15-158-42-5-3-11-4-17-2l-88 31c-16 5-31-9-26-25l28-89c2-5 1-11-2-16-24-41-38-87-38-137 0-155 134-280 300-280m130 230c6 0 10-4 10-10v-60c0-6-4-10-10-10H370c-6 0-10 4-10 10v60c0 6 4 10 10 10zM430 650c6 0 10-4 10-10V520c0-6-4-10-10-10h-60c-6 0-10 4-10 10v120c0 6 4 10 10 10zm200 0c6 0 10-4 10-10V520c0-6-4-10-10-10H510c-6 0-10 4-10 10v120c0 6 4 10 10 10z"/></symbol><symbol viewBox="0 0 1000 1000"  id="metrics" xmlns="http://www.w3.org/2000/svg"><path d="M720 220H280c-33 0-60 27-60 60v440c0 33 27 60 60 60h440c33 0 60-27 60-60V280c0-33-27-60-60-60M380 660c0 11-9 20-20 20h-20c-11 0-20-9-20-20V550c0-11 9-20 20-20h20c11 0 20 9 20 20zm100 0c0 11-9 20-20 20h-20c-11 0-20-9-20-20V400c0-11 9-20 20-20h20c11 0 20 9 20 20zm100 0c0 11-9 20-20 20h-20c-11 0-20-9-20-20V340c0-11 9-20 20-20h20c11 0 20 9 20 20zm100 0c0 11-9 20-20 20h-20c-11 0-20-9-20-20V470c0-11 9-20 20-20h20c11 0 20 9 20 20z"/></symbol><symbol viewBox="0 0 1000 1000"  id="queue" xmlns="http://www.w3.org/2000/svg"><g transform="scale(10)"><path d="M67.6 20.1c-2.9 0-5.4 2.1-6.4 5a14 14 0 017.7 9.9c3.1-.7 5.4-3.7 5.4-7.3 0-4.3-3-7.6-6.7-7.6m6.2 17.8a9 9 0 01-4.7 2.3c-.3 2.7-1.3 5.2-2.8 7.2h11.1c1.4 0 2.5-1.1 2.5-2.5v-1.2c0-2.7-3-4.4-6.1-5.8M63.2 50c-2 1.8-4.5 2.9-7.2 2.9-.2 3.1-1.1 5.9-2.5 8.3h14a3 3 0 003-3V57c-.1-3.3-3.7-5.3-7.3-7M50.3 65.2A14.8 14.8 0 0129 65c-4.6 2.2-9 5-9 9.1V76c0 2.2 1.8 3.9 3.9 3.9h31.3c2.2 0 3.9-1.8 3.9-3.9v-1.8c0-4.2-4.2-6.9-8.8-9"/><ellipse cx="39.6" cy="51.6" rx="10.7" ry="11.8"/><path d="M55.7 29.5A8 8 0 0048 36c3.7 2.4 6.4 6.5 7.5 11.2h.2c4.4 0 8-4 8-8.9.1-4.8-3.5-8.8-8-8.8"/></g></symbol><symbol viewBox="0 0 1000 1000"  id="record_create" xmlns="http://www.w3.org/2000/svg"><path d="M390 320h220c11 0 20-9 20-20v-40c0-33-27-60-60-60H430c-33 0-60 27-60 60v40c0 11 9 20 20 20m330-70h-20c-6 0-10 4-10 10v40c0 44-36 80-80 80H390c-44 0-80-36-80-80v-40c0-6-4-10-10-10h-20c-33 0-60 27-60 60v430c0 33 27 60 60 60h440c33 0 60-27 60-60V310c0-33-27-60-60-60m-73 352c0 5-5 10-10 10H527c-4 0-7 3-7 7v110c0 5-5 10-10 10h-20c-5 0-10-5-10-10V619c0-4-3-7-7-7H363c-5 0-10-5-10-10v-20c0-5 5-10 10-10h110c4 0 7-3 7-7V455c0-5 5-10 10-10h20c5 0 10 5 10 10v110c0 4 3 7 7 7h110c5 0 10 5 10 10z"/></symbol><symbol viewBox="0 0 1000 1000"  id="skill" xmlns="http://www.w3.org/2000/svg"><path d="M438 468a54 54 0 1155-54 54 54 0 01-55 54m335 89l-72-108v-9a240 240 0 00-239-240 220 220 0 00-57 7 239 239 0 00-182 233 219 219 0 0036 127c42 60 70 108 53 173a46 46 0 009 42 44 44 0 0036 18h196a47 47 0 0047-38 50 50 0 002-12 24 24 0 0124-20h14a47 47 0 0047-34 413 413 0 0015-96h51a28 28 0 0022-16 29 29 0 00-2-27m-198-84l-10 16a22 22 0 01-18 9 24 24 0 01-7-1l-26-10a116 116 0 01-39 22l-5 29a20 20 0 01-20 16h-20a20 20 0 01-20-16l-5-29a100 100 0 01-36-20l-29 10a24 24 0 01-7 1 21 21 0 01-17-10l-10-16a19 19 0 014-25l24-19a101 101 0 01-3-21 94 94 0 013-20l-23-20a19 19 0 01-5-25l10-17a20 20 0 0118-10 24 24 0 017 2l28 10a115 115 0 0137-21l4-28a19 19 0 0120-16h20a19 19 0 0120 15l5 28a113 113 0 0137 21l28-10a24 24 0 017-2 21 21 0 0118 10l10 16a20 20 0 01-5 26l-23 19a96 96 0 012 21 94 94 0 01-2 20l23 19a20 20 0 015 26"/></symbol><symbol viewBox="0 0 1000 1000"  id="user" xmlns="http://www.w3.org/2000/svg"><path d="M800 712v28c0 33-27 60-60 60H260c-33 0-60-27-60-60v-28c0-73 85-117 165-152l8-4c6-3 13-3 19 1a196 196 0 00216 1c6-4 13-4 19-1l8 4c80 34 165 78 165 151"/><ellipse cx="500" cy="365" rx="149" ry="165"/></symbol><symbol viewBox="0 0 1000 1000"  id="voice_call" xmlns="http://www.w3.org/2000/svg"><path d="M777 639l-62-50a60 60 0 00-73-2l-59 43c-8 6-19 5-26-2l-97-88-89-98c-7-7-8-18-2-26l43-59c16-22 15-52-2-73l-50-62c-22-28-64-30-89-5l-54 54c-12 12-18 29-18 45 7 127 65 248 150 333s205 143 333 150c17 1 33-6 45-18l54-54c27-24 24-66-4-88"/></symbol><symbol viewBox="0 0 1000 1000"  id="waits" xmlns="http://www.w3.org/2000/svg"><path d="M800 405c0-10-9-19-19-19H519c-10 0-19 9-19 19v37c0 10 9 19 19 19h178L504 698l-1 1c-2 3-4 7-4 11v37c0 10 9 19 19 19h263c10 0 19-9 19-19v-37c0-10-9-19-19-19H606l190-233c3-4 4-8 3-13v-40zM500 253c0-10-9-19-19-19H219c-10 0-19 9-19 19v37c0 10 9 19 19 19h178L204 546l-1 1c-2 3-3 6-3 10v37c0 10 9 19 19 19h263c10 0 19-9 19-19v-37c0-10-9-19-19-19H306l190-233c3-4 4-8 3-13v-39z"/></symbol><symbol viewBox="0 0 1000 1000"  id="work_capacity_limit" xmlns="http://www.w3.org/2000/svg"><path d="M759 293l-90-89c-3-3-6-4-9-4-8 0-14 6-14 14v64c1 21 18 38 39 38h64c7 0 13-6 13-13 0-4-1-7-3-10M296 626V316c-32 0-58 26-58 58v367c0 32 26 58 58 59h292c32 0 57-25 58-57H413c-64 0-117 0-117-117m219-183v90h85s5-32-24-62c-29-29-61-28-61-28"/><path d="M742 374h-98c-32 1-58-25-59-57v-98c1-10-7-18-17-19H412c-32-1-58 25-59 57v368c0 32 26 58 58 58h292c32 1 58-25 59-57V394c0-11-8-20-20-20M635 530a118 118 0 01-236-2 118 118 0 01236 2"/></symbol><symbol viewBox="0 0 1000 1000"  id="work_order_item" xmlns="http://www.w3.org/2000/svg"><path d="M390 320h220c11 0 20-9 20-20v-40c0-33-27-60-60-60H430c-33 0-60 27-60 60v40c0 11 9 20 20 20m330-70h-20c-6 0-10 4-10 10v40c0 44-36 80-80 80H390c-44 0-80-36-80-80v-40c0-6-4-10-10-10h-20c-33 0-60 27-60 60v430c0 33 27 60 60 60h440c33 0 60-27 60-60V310c0-33-27-60-60-60m-52 240L476 682c-5 5-11 8-18 8s-14-3-19-8L332 575c-5-5-5-11 0-16l21-21c5-5 11-5 16 0l88 88 173-173c5-5 11-5 16 0l21 21c5 5 5 12 1 16"/></symbol></svg>