<svg xmlns="http://www.w3.org/2000/svg" xmlns:xlink="http://www.w3.org/1999/xlink" display="none"><symbol  viewBox="0 0 52 52" id="color_swatch" xmlns="http://www.w3.org/2000/svg"><path d="M35.4 9.5l7.1 7a4 4 0 010 5.7L24 40.7V15.3l5.8-5.8a4 4 0 015.6 0M50 36v10a4 4 0 01-4 4H21l18-18h7a4 4 0 014 4M2 41V6a4 4 0 014-4h10a4 4 0 014 4v35a9 9 0 01-18 0m9 4a4 4 0 100-8 4 4 0 000 8"/></symbol><symbol viewBox="0 0 520 520"  id="metrics" xmlns="http://www.w3.org/2000/svg"><path d="M449 20H71a51 51 0 00-51 51v377c0 29 23 52 51 52h377c28 0 51-23 51-51V71a50 50 0 00-50-51M157 397c0 9-8 17-17 17h-17c-9 0-17-8-17-17v-94c0-9 8-17 17-17h17c9 0 17 8 17 17zm86 0c0 9-8 17-17 17h-17c-9 0-17-8-17-17V174c0-9 8-17 17-17h17c9 0 17 8 17 17zm86 0c0 9-8 17-17 17h-17c-9 0-17-8-17-17V123c0-9 8-17 17-17h17c9 0 17 8 17 17zm85 0c0 9-8 17-17 17h-17c-9 0-17-8-17-17V234c0-9 8-17 17-17h17c9 0 17 8 17 17z"/></symbol><symbol viewBox="0 0 520 520"  id="apex" xmlns="http://www.w3.org/2000/svg"><path d="M485 400H215c-8 0-15 7-15 15v30c0 8 7 15 15 15h270c8 0 15-7 15-15v-30c0-8-7-15-15-15M254 218L60 63c-6-5-15-4-20 3L23 90c-5 7-3 16 3 21l138 110a10 10 0 010 16L26 347c-6 5-8 15-3 21l17 26c5 7 14 8 20 3l194-155c8-6 8-18 0-24"/></symbol><symbol viewBox="0 0 520 520"  id="clock" xmlns="http://www.w3.org/2000/svg"><path d="M260 20C128 20 20 128 20 260s108 240 240 240 240-108 240-240S392 20 260 20m0 420c-99 0-180-81-180-180S161 80 260 80s180 81 180 180-81 180-180 180m34-178c-3-3-4-7-4-11v-96c0-8-7-15-15-15h-30c-8 0-15 7-15 15v121c0 4 2 8 4 11l74 74c6 6 15 6 21 0l21-21c6-6 6-15 0-21z"/></symbol><symbol viewBox="0 0 520 520"  id="close" xmlns="http://www.w3.org/2000/svg"><path d="M310 254l130-131c6-6 6-15 0-21l-20-21c-6-6-15-6-21 0L268 212a10 10 0 01-14 0L123 80c-6-6-15-6-21 0l-21 21c-6 6-6 15 0 21l131 131c4 4 4 10 0 14L80 399c-6 6-6 15 0 21l21 21c6 6 15 6 21 0l131-131a10 10 0 0114 0l131 131c6 6 15 6 21 0l21-21c6-6 6-15 0-21L310 268a10 10 0 010-14"/></symbol><symbol viewBox="0 0 520 520"  id="down" xmlns="http://www.w3.org/2000/svg"><path d="M83 140h354c10 0 17 13 9 22L273 374c-6 8-19 8-25 0L73 162c-7-9-1-22 10-22"/></symbol><symbol viewBox="0 0 520 520"  id="expand_alt" xmlns="http://www.w3.org/2000/svg"><path d="M488 20H333c-10 0-13 9-5 17l49 49-90 90c-5 5-5 13 0 19l37 37c5 5 13 5 19 0l91-91 49 49c8 8 17 5 17-5V31c0-6-6-11-12-11M35 500h154c10 0 13-11 5-19l-49-50 90-91c5-5 5-14 0-19l-37-37c-5-5-13-5-19 0l-90 90-50-49c-9-8-19-5-19 5v154c0 7 8 16 15 16"/></symbol><symbol viewBox="0 0 520 520"  id="filterList" xmlns="http://www.w3.org/2000/svg"><path d="M483 40H39c-15 0-22 17-13 28l194 227c6 7 9 17 9 26v144c0 8 8 15 16 15h30c8 0 14-7 14-15V321c0-10 4-19 11-26L496 68c9-11 2-28-13-28"/></symbol><symbol viewBox="0 0 520 520"  id="info" xmlns="http://www.w3.org/2000/svg"><path d="M260 20a240 240 0 100 480 240 240 0 100-480m0 121c17 0 30 13 30 30s-13 30-30 30-30-13-30-30 13-30 30-30m50 210c0 5-4 9-10 9h-80c-5 0-10-3-10-9v-20c0-5 4-11 10-11 5 0 10-3 10-9v-40c0-5-4-11-10-11-5 0-10-3-10-9v-20c0-5 4-11 10-11h60c5 0 10 5 10 11v80c0 5 4 9 10 9 5 0 10 5 10 11z"/></symbol><symbol viewBox="0 0 520 520"  id="logout" xmlns="http://www.w3.org/2000/svg"><path d="M210 485v-30c0-8-7-15-15-15H95c-8 0-15-7-15-15V95c0-8 7-15 15-15h100c8 0 15-7 15-15V35c0-8-7-15-15-15H60a40 40 0 00-40 40v400a40 40 0 0040 40h135c8 0 15-7 15-15m286-215c6-6 6-15 0-21L361 114c-6-6-15-6-21 0l-21 21c-6 6-6 15 0 21l56 56c6 6 2 17-7 17H155c-8 0-15 6-15 14v30c0 8 7 16 15 16h212c9 0 13 11 7 17l-56 56c-6 6-6 15 0 21l21 21c6 6 15 6 21 0z"/></symbol><symbol viewBox="0 0 520 520"  id="new_window" xmlns="http://www.w3.org/2000/svg"><path d="M487 20H296c-8 0-16 5-16 13v30c0 8 7 17 16 17h79c9 0 14 10 7 16L212 266c-6 6-6 15 0 21l21 21c6 6 15 6 21 0l170-170c6-6 16-2 16 7v79c0 8 8 17 16 17h29c8 0 15-9 15-17V34c0-9-5-14-13-14M363 255l-34 35q-9 9-9 21v114c0 8-7 15-15 15H95c-8 0-15-7-15-15V215c0-8 7-15 15-15h115c8 0 16-3 21-9l34-34c6-6 2-17-7-17H60a40 40 0 00-40 40v280a40 40 0 0040 40h280a40 40 0 0040-40V262c0-9-11-13-17-7"/></symbol><symbol viewBox="0 0 520 520"  id="refresh" xmlns="http://www.w3.org/2000/svg"><path d="M465 40h-30c-8 0-15 7-15 15v70c0 9-5 13-12 7l-10-10a210 210 0 10-12 309c7-6 7-16 1-22l-21-21c-5-5-14-6-20-1a152 152 0 01-172 14 152 152 0 0177-281 150 150 0 01118 58c3 8-4 12-13 12h-70c-8 0-15 7-15 15v31c0 8 6 14 14 14h183c7 0 13-6 13-13V55c-1-8-8-15-16-15"/></symbol><symbol viewBox="0 0 520 520"  id="salesforce1" xmlns="http://www.w3.org/2000/svg"><path d="M217 119c17-17 40-28 66-28 34 0 64 19 80 47 14-6 29-10 45-10 62 0 112 50 112 112s-50 112-112 112c-8 0-15-1-22-2a82.4 82.4 0 01-72 42c-13 0-25-3-36-8a92.7 92.7 0 01-86 56c-40 0-75-25-88-61-6 1-12 2-18 2a87 87 0 01-44-162 100.5 100.5 0 0193-140c35 1 64 16 82 40"/></symbol><symbol viewBox="0 0 520 520"  id="settings" xmlns="http://www.w3.org/2000/svg"><path d="M261 191c-39 0-70 31-70 70s31 70 70 70 70-31 70-70-31-70-70-70m210 133l-37-31a195 195 0 000-68l37-31c12-10 16-28 8-42l-16-28a34 34 0 00-40-14l-46 17a168 168 0 00-59-34l-8-47c-3-16-17-25-33-25h-32c-16 0-30 9-33 25l-8 46a180 180 0 00-60 34l-46-17-11-2c-12 0-23 6-29 16l-16 28c-8 14-5 32 8 42l37 31a195 195 0 000 68l-37 31a34 34 0 00-8 42l16 28a34 34 0 0040 14l46-17c18 16 38 27 59 34l8 48a33 33 0 0033 27h32c16 0 30-12 33-28l8-48a170 170 0 0062-37l43 17 12 2c12 0 23-6 29-16l15-26c9-11 5-29-7-39m-210 47c-61 0-110-49-110-110s49-110 110-110 110 49 110 110-49 110-110 110"/></symbol><symbol viewBox="0 0 520 520"  id="setup" xmlns="http://www.w3.org/2000/svg"><path d="M468 324l-37-31a195 195 0 000-68l37-31c12-10 16-28 8-42l-16-29a34 34 0 00-40-14l-45 17a173 173 0 00-58-34l-8-47c-3-16-17-25-33-25h-32c-16 0-30 9-33 25l-8 46c-22 7-41 19-59 34l-44-17-11-2c-12 0-23 6-29 16l-16 28c-8 14-5 32 8 42l37 31a195 195 0 000 68l-37 31a34 34 0 00-8 42l16 30a34 34 0 0040 14l45-17c18 16 38 27 58 34l8 48a33 33 0 0033 27h32c16 0 30-12 33-28l8-48c23-8 43-20 61-37l42 17 12 2c12 0 23-6 29-16l15-26c8-12 4-30-8-40m-207 47a110 110 0 01-109-110 109 109 0 11218 0 110 110 0 01-109 110m29-191h-46c-7 0-13 4-15 10l-28 72c-2 5 2 11 8 11h47l-17 60c-2 6 5 9 9 5l71-83c5-5 1-13-6-13h-35l31-49c3-5-1-12-7-12h-12z"/></symbol><symbol viewBox="0 0 520 520"  id="threedots_vertical" xmlns="http://www.w3.org/2000/svg"><path d="M200 440c0-33 27-60 60-60s60 27 60 60-27 60-60 60-60-27-60-60m0-180c0-33 27-60 60-60s60 27 60 60-27 60-60 60-60-27-60-60m0-180c0-33 27-60 60-60s60 27 60 60-27 60-60 60-60-27-60-60"/></symbol></svg>