<svg xmlns="http://www.w3.org/2000/svg" xmlns:xlink="http://www.w3.org/1999/xlink" display="none"><symbol  viewBox="0 0 52 52" id="color_swatch" xmlns="http://www.w3.org/2000/svg"><path d="M35.4 9.5l7.1 7a4 4 0 010 5.7L24 40.7V15.3l5.8-5.8a4 4 0 015.6 0M50 36v10a4 4 0 01-4 4H21l18-18h7a4 4 0 014 4M2 41V6a4 4 0 014-4h10a4 4 0 014 4v35a9 9 0 01-18 0m9 4a4 4 0 100-8 4 4 0 000 8"/></symbol><symbol viewBox="0 0 520 520"  id="metrics" xmlns="http://www.w3.org/2000/svg"><path d="M449 20H71a51 51 0 00-51 51v377c0 29 23 52 51 52h377c28 0 51-23 51-51V71a50 50 0 00-50-51M157 397c0 9-8 17-17 17h-17c-9 0-17-8-17-17v-94c0-9 8-17 17-17h17c9 0 17 8 17 17zm86 0c0 9-8 17-17 17h-17c-9 0-17-8-17-17V174c0-9 8-17 17-17h17c9 0 17 8 17 17zm86 0c0 9-8 17-17 17h-17c-9 0-17-8-17-17V123c0-9 8-17 17-17h17c9 0 17 8 17 17zm85 0c0 9-8 17-17 17h-17c-9 0-17-8-17-17V234c0-9 8-17 17-17h17c9 0 17 8 17 17z"/></symbol></svg>