<svg xmlns="http://www.w3.org/2000/svg" height="100" width="100" viewBox="0 0 1000 1000" fill="#fff"><path d="M764 489.7H582.6c-13.9 0-26.5 11.3-26.5 26.5s11.3 26.5 26.5 26.5H764c13.9 0 26.5-11.3 26.5-26.5s-11.3-26.5-26.5-26.5M582.6 351.1H764c13.9 0 26.5-11.3 26.5-26.5s-11.3-26.5-26.5-26.5H582.6c-13.9 0-26.5 11.3-26.5 26.5s11.3 26.5 26.5 26.5M358.3 671.2a33.8 33.8 0 1 0 0 68 33.8 33.8 0 1 0 0-68m133.5-221.9V448l32.8-15.1a13.2 13.2 0 0 0 0-23.9l-32.8-15.1h-1.3L453.9 375a104 104 0 0 1-47.9-47.9l-17.6-36.6c0-1.3-7.6-17.6-7.6-17.6l-7.6-16.4a13.2 13.2 0 0 0-23.9 0l-15.1 32.8c0 1.3-17.6 37.8-17.6 37.8a104 104 0 0 1-47.9 47.9l-36.6 17.6h-1.3l-16.4 8.8L198 409a13.2 13.2 0 0 0 0 23.9l32.8 15.1h1.3l36.6 18.9a104 104 0 0 1 47.9 47.9l17.6 36.6c0 1.3 7.6 17.6 7.6 17.6l7.6 16.4a13.2 13.2 0 0 0 23.9 0l15.1-32.8c0-1.3 17.6-37.8 17.6-37.8a104 104 0 0 1 47.9-47.9l36.6-17.6zm-60.5-28.9a153 153 0 0 0-71.8 71.8v1.3a150 150 0 0 0-71.8-73.1 165 165 0 0 0 71.8-71.8v-1.3a153 153 0 0 0 71.8 71.8zM764 678.7H513.3c-13.9 0-26.5 11.3-26.5 26.5s11.3 26.5 26.5 26.5H764c13.9 0 26.5-11.3 26.5-26.5s-11.3-26.5-26.5-26.5"/></svg>