<?xml version="1.0" encoding="UTF-8"?><svg id="a" xmlns="http://www.w3.org/2000/svg" width="100" height="100" viewBox="0 0 100 100"><path d="M44.01,72.51c1,2.37,2.49,4.61,4.37,6.49.28.19.49.44.74.72l.26.28h-4.99c-.91,0-1.73-.73-1.85-1.62l-.02-.25v-3.74c0-.87.62-1.75,1.5-1.87h0ZM35.66,72.38c.91,0,1.72.73,1.85,1.62l.02.25v3.74c0,.91-.73,1.72-1.62,1.85l-.25.02h-11.23c-.91,0-1.72-.73-1.85-1.63l-.02-.25v-3.74c0-.91.73-1.72,1.62-1.85l.25-.02h11.23ZM61.4,49.93c-8.28,0-15,6.72-15,15s6.72,15,15,15,15-6.72,15-15-6.72-15-15-15ZM70.72,72.77c0,.29-.24.58-.53.58h-5.64c-.29-.01-.58-.29-.58-.58v-4.11c0-.29.29-.58.58-.58h1.69v-2.63h-9.01v2.63h1.69c.29,0,.58.29.58.58v4.11c0,.29-.29.58-.58.58h-5.64c-.29-.01-.58-.29-.58-.58v-4.11c0-.29.29-.58.58-.58h1.69v-4.32c0-.28.29-.53.58-.53h5.1v-2.63h-1.73c-.29,0-.58-.29-.58-.58v-4.11c.01-.29.29-.58.58-.58h5.63c.28,0,.53.29.53.58v4.11c0,.29-.24.58-.53.58h-1.69v2.63h5.02c.29,0,.58.24.58.53v4.32h1.73c.28,0,.53.29.53.58v4.11ZM35.66,59.91c.91,0,1.72.73,1.85,1.62l.02.25v3.74c0,.91-.73,1.72-1.62,1.85l-.25.02h-11.23c-.91,0-1.72-.73-1.85-1.62l-.02-.25v-3.74c0-.91.73-1.72,1.62-1.85l.25-.02h11.23ZM35.66,47.44c.91,0,1.72.73,1.85,1.62l.02.25v3.74c0,.91-.73,1.72-1.62,1.85l-.25.02h-11.23c-.91,0-1.72-.73-1.85-1.62l-.02-.25v-3.74c0-.91.73-1.72,1.62-1.85l.25-.02s11.23,0,11.23,0ZM52.74,47.44c-1.5.87-2.99,2-4.37,3.37-1.04,1.04-1.91,2.17-2.67,3.38l-.45.74h-.87c-.91,0-1.73-.73-1.85-1.62l-.02-.25v-3.74c0-.91.73-1.72,1.62-1.85l.25-.02h8.36ZM75.57,47.44c.91,0,1.72.73,1.85,1.62l.02.25v2.37c-.25-.25-.5-.62-.87-.87-1.07-1.18-2.32-2.17-3.68-2.98l-.69-.39h3.37ZM35.66,34.97c.91,0,1.72.74,1.85,1.63l.02.25v3.74c0,.91-.73,1.72-1.62,1.85l-.25.02h-11.23c-.91,0-1.72-.73-1.85-1.62l-.02-.25v-3.74c0-.91.73-1.73,1.62-1.85l.25-.02h11.23ZM55.61,34.97c.91,0,1.72.73,1.85,1.63l.02.25v3.74c0,.91-.74,1.72-1.63,1.85l-.25.02h-11.22c-.91,0-1.73-.73-1.85-1.62l-.02-.25v-3.74c0-.91.73-1.73,1.62-1.85l.25-.02h11.23ZM75.57,34.97c.91,0,1.72.73,1.85,1.63l.02.25v3.74c0,.91-.73,1.72-1.62,1.85l-.25.02h-11.23c-.91,0-1.72-.73-1.85-1.62l-.02-.25v-3.74c0-.91.73-1.73,1.62-1.85l.25-.02h11.23ZM75.57,20c.91,0,1.72.73,1.85,1.63l.02.25v6.24c0,.91-.73,1.73-1.62,1.85l-.25.02H24.43c-.91,0-1.72-.73-1.85-1.63l-.02-.25v-6.24c0-.91.73-1.72,1.62-1.85l.25-.02h51.13Z" fill="#fff"/></svg>