<?xml version="1.0" encoding="UTF-8"?><svg id="Layer_1" xmlns="http://www.w3.org/2000/svg" width="100" height="100" viewBox="0 0 100 100"><path d="M45.79,66.5c2.51-1.38,4.58-1.5,6.27-.9.02,2.79.66,5.43,1.8,7.79-1.7-.49-3.44-.69-4.58-.12,0,0,0-.11-2.62,1.53-7.1,4.37-10.92-2.73-12.34-6.66-.33-.87.22-1.86.87-1.53,2.29,1.09,6.11,2.62,7.97,1.42,0,0,1.64-.98,2.62-1.53ZM49.28,47.17c5.95-3.04,10.19-1,13,1.98-2.39,1.16-4.48,2.83-6.14,4.87-.83.01-1.57.15-2.16.47-.08.03-4.96,1.99-10.81,4.91-9.39,4.8-14.52-3.06-16.49-7.43-.44-.87.33-1.97,1.2-1.53,3.06,1.2,8.19,2.95,10.6,1.64l4.81-2.07c.06-.03,4.81-2.19,6.01-2.84ZM53.54,25.33c10.7-4.91,16.49,3.39,18.78,7.86.44.98-.44,1.97-1.42,1.75-3.39-1.2-9.28-3.06-12.01-1.75-.06.03-13.34,5.79-19.99,8.85-10.7,4.91-16.49-3.39-18.79-7.86-.44-.98.44-1.97,1.42-1.64,3.39,1.2,9.28,3.06,12.01,1.75l9.61-4.15s3.71-1.75,10.38-4.81ZM65.5,57.05c.18-.07.37-.11.57-.11h12.33c.39.01.75.17,1.02.45.27.28.41.65.41,1.04l.18,12.28c0,.19-.05.38-.13.56-.08.18-.19.34-.33.47-.14.13-.31.24-.49.3-.18.07-.37.1-.57.1h-1.57c-.19,0-.39-.04-.56-.11-.18-.07-.34-.18-.48-.32-.14-.14-.25-.3-.32-.48-.07-.18-.11-.37-.11-.56v-6.15l-11.31,11.27c-.13.13-.28.22-.44.29-.17.07-.34.1-.52.1-.21,0-.41-.04-.61-.12-.19-.08-.37-.2-.51-.34l-1.03-1.03c-.27-.27-.42-.64-.42-1.02s.15-.75.42-1.02l11.31-11.27h-6.31c-.39,0-.75-.17-1.02-.44-.27-.28-.42-.65-.42-1.03v-1.47c0-.19.04-.39.11-.57.07-.18.18-.34.32-.48.14-.14.3-.25.48-.32Z" fill="#fff"/></svg>