<?xml version="1.0" encoding="UTF-8"?><svg id="Layer_1" xmlns="http://www.w3.org/2000/svg" width="100" height="100" viewBox="0 0 100 100"><path d="M77.5,67.9c1.37,0,2.5,1.12,2.5,2.49v7.11c0,1.37-1.12,2.49-2.5,2.49h-25.25c-1.38,0-2.5-1.12-2.5-2.49v-7.11c0-1.37,1.13-2.49,2.5-2.49h25.25ZM77.5,38.96c1.37,0,2.5,1.12,2.5,2.49v16.96c0,1.37-1.12,2.49-2.5,2.49H22.5c-1.37,0-2.5-1.12-2.5-2.49v-16.96c0-1.37,1.13-2.49,2.5-2.49h55ZM47.75,20c1.37,0,2.5,1.12,2.5,2.49v7.11c0,1.37-1.13,2.49-2.5,2.49h-25.25c-1.37,0-2.5-1.12-2.5-2.49v-7.11c0-1.37,1.13-2.49,2.5-2.49h25.25Z" fill="#fff"/></svg>