<?xml version="1.0" encoding="UTF-8"?><svg id="Layer_1" xmlns="http://www.w3.org/2000/svg" width="100" height="100" viewBox="0 0 100 100"><path d="M44.01,72.55c1,2.37,2.49,4.61,4.37,6.49.28.19.49.44.74.72l.26.28h-4.99c-.91,0-1.73-.73-1.85-1.62l-.02-.25v-3.74c0-.87.62-1.75,1.5-1.87ZM35.66,72.43c.91,0,1.72.73,1.85,1.62l.02.25v3.74c0,.91-.73,1.72-1.62,1.85l-.25.02h-11.23c-.91,0-1.72-.73-1.85-1.63l-.02-.25v-3.74c0-.91.73-1.72,1.62-1.85l.25-.02h11.23ZM61.85,49.07c8.28,0,15,6.71,15,15,0,8.28-6.71,15-15,15-8.28,0-15-6.72-15-15,0-8.28,6.72-15,15-15ZM62.92,57.52c-.33-.08-.7.12-.78.45l-3.05,11.7c-.08.33.12.66.45.74l1.24.29c.33.08.7-.12.78-.45l3.05-11.7c.08-.37-.12-.66-.45-.74l-1.24-.29ZM67.62,57.73c-.21-.25-.58-.33-.86-.08l-.95.78c-.29.21-.33.62-.08.87l3.92,4.82-3.92,4.82c-.21.25-.17.66.08.87l.95.78c.29.21.62.16.86-.08l4.82-6.01c.16-.29.16-.58,0-.78l-4.82-5.97ZM56.9,57.6c-.29-.21-.62-.16-.87.08l-4.78,6.01c-.16.21-.16.54,0,.78l4.82,5.97c.21.25.58.33.87.08l.95-.78c.29-.21.33-.62.08-.87l-3.87-4.82,3.92-4.82c.16-.25.12-.62-.17-.87l-.94-.78ZM35.66,59.95c.91,0,1.72.73,1.85,1.62l.02.25v3.74c0,.91-.73,1.72-1.62,1.85l-.25.02h-11.23c-.91,0-1.72-.73-1.85-1.62l-.02-.25v-3.74c0-.91.73-1.72,1.62-1.85l.25-.02h11.23ZM35.66,47.48c.91,0,1.72.73,1.85,1.62l.02.25v3.74c0,.91-.73,1.72-1.62,1.85l-.25.02h-11.23c-.91,0-1.72-.73-1.85-1.62l-.02-.25v-3.74c0-.91.73-1.72,1.62-1.85l.25-.02h11.23ZM52.74,47.48c-1.5.87-2.99,2-4.37,3.37-1.04,1.04-1.91,2.17-2.67,3.38l-.45.74h-.87c-.91,0-1.73-.73-1.85-1.62l-.02-.25v-3.74c0-.91.73-1.72,1.62-1.85l.25-.02h8.36ZM75.57,47.48c.91,0,1.72.73,1.85,1.62l.02.25v2.37c-.25-.25-.5-.62-.87-.87-1.07-1.18-2.32-2.17-3.68-2.98l-.69-.39h3.37ZM35.66,35c.91,0,1.72.74,1.85,1.63l.02.25v3.74c0,.91-.73,1.72-1.62,1.85l-.25.02h-11.23c-.91,0-1.72-.73-1.85-1.62l-.02-.25v-3.74c0-.91.73-1.73,1.62-1.85l.25-.02h11.23ZM55.61,35c.91,0,1.72.73,1.85,1.63l.02.25v3.74c0,.91-.74,1.72-1.63,1.85l-.25.02h-11.22c-.91,0-1.73-.73-1.85-1.62l-.02-.25v-3.74c0-.91.73-1.73,1.62-1.85l.25-.02h11.22ZM75.57,35c.91,0,1.72.73,1.85,1.63l.02.25v3.74c0,.91-.73,1.72-1.62,1.85l-.25.02h-11.23c-.91,0-1.72-.73-1.85-1.62l-.02-.25v-3.74c0-.91.73-1.73,1.62-1.85l.25-.02h11.23ZM75.57,20.03c.91,0,1.72.73,1.85,1.63l.02.25v6.24c0,.91-.73,1.73-1.62,1.85l-.25.02H24.43c-.91,0-1.72-.73-1.85-1.63l-.02-.25v-6.24c0-.91.73-1.73,1.62-1.85l.25-.02h51.14Z" fill="#fff"/></svg>