<svg xmlns="http://www.w3.org/2000/svg" height="64" width="56" viewBox="0 0 5600 6400"><path fill="#d38d00" d="M508 0A508 508 0 0 0 0 508v5384c0 280 227 508 508 508h4584c280 0 508-228 508-508V2031L3706 0z"/><path d="M5593 2035v100H4313s-631-126-613-671c0 1 21 571 600 571z" opacity=".1"/><path fill="#fff" d="M3702 0v1456c0 166 111 579 611 579h1280z" opacity=".5"/><path fill="#fcf2d9" d="M2715 3200c268 0 485 217 485 485v1230c0 268-217 485-485 485H1485a485 485 0 0 1-485-485V3685c0-268 217-485 485-485zm-756 1248a97 97 0 0 0-137-2l-233 226-85-82a97 97 0 0 0-137 2 98 98 0 0 0-5 130l7 7 152 148c38 36 97 36 135 0l301-291c38-37 39-99 2-137Zm221 238a97 97 0 0 0 0 194h583a97 97 0 0 0 0-194zm0-477a97 97 0 0 0 0 194h583a97 97 0 0 0 0-194zm-383-512c-106 0-139 95-140 98 0-2-35-98-140-98-88 0-151 62-151 139 0 99 85 194 195 269 44 30 70 45 96 45s52-15 95-44c110-76 196-170 196-269 0-77-63-139-151-139Zm383 35a97 97 0 0 0 0 194h583a97 97 0 0 0 0-194z"/></svg>