<svg xmlns="http://www.w3.org/2000/svg" height="64" width="56" viewBox="0 0 5600 6400"><path fill="#0e9dd3" d="M508 0A508 508 0 0 0 0 508v5384c0 280 227 508 508 508h4584c280 0 508-228 508-508V2031L3706 0z"/><path d="M5600 2035v100H4308s-624-124-606-669c0 0 24 560 593 569z" opacity=".1"/><path fill="#fff" d="M3702 0v1456c0 166 111 579 611 579l1287-4z" opacity=".5"/><path fill="#e3f8ff" d="M2715 3200c268 0 485 217 485 485v742c0 94-38 185-104 252l-616 617a355 355 0 0 1-252 104h-742a485 485 0 0 1-485-485V3686c0-268 217-485 485-485h1230Zm-324 1196c-107 0-194 87-194 194v421a97 97 0 0 0 194 0v-356c0-36 29-65 65-65h356a97 97 0 0 0 0-194zm-777-343a97 97 0 0 0 0 194h259a97 97 0 0 0 0-194zm0-388a97 97 0 0 0 0 194h971a97 97 0 0 0 0-194z"/></svg>