<svg xmlns="http://www.w3.org/2000/svg" height="64" width="56" viewBox="0 0 5600 6400"><path fill="#fcf2d9" d="M512 0A508 508 0 0 0 4 508v5385c0 280 227 508 508 508h4585c280 0 508-228 508-508V2031L3711 0z"/><path d="M5598 2035v100H4318s-631-126-613-671c0 1 21 571 600 571z" opacity=".1"/><path fill="#ecb22e" d="M3707 0v1456c0 166 111 579 611 579h1280z"/><path fill="#d38d00" d="M2715 3200c268 0 485 217 485 485v1230c0 268-217 485-485 485h-388a97 97 0 0 1 0-194h388c161 0 291-130 291-291V3685c0-161-130-291-291-291H1485a291 291 0 0 0-291 291v388a97 97 0 0 1-194 0v-388c0-268 217-485 485-485zM1582 4254a564 564 0 1 1 0 1128 564 564 0 0 1 0-1128m265 388a97 97 0 0 0-137-2l-213 206-63-61a97 97 0 0 0-137 2 97 97 0 0 0 2 137l131 126c38 36 98 37 135 0l280-271c39-37 39-99 2-137m925 46c49 5 87 46 87 97s-38 92-87 97h-334a97 97 0 0 1 0-194zm-10-479a97 97 0 0 1 0 194h-517a97 97 0 0 1 0-194zm-965-577c88 0 151 62 151 139 0 99-86 193-196 269-44 30-70 44-95 44s-52-15-96-45c-110-75-195-170-195-269 0-77 63-139 151-139 105 0 139 96 140 98 0-2 34-98 140-98zm965 100a97 97 0 0 1 0 194h-583a97 97 0 0 1 0-194z"/></svg>